<svg xmlns="http://www.w3.org/2000/svg" width="25" height="25" viewBox="0 0 25 25">
  <metadata><?xpacket begin="﻿" id="W5M0MpCehiHzreSzNTczkc9d"?>
<x:xmpmeta xmlns:x="adobe:ns:meta/" x:xmptk="Adobe XMP Core 5.6-c138 79.159824, 2016/09/14-01:09:01        ">
   <rdf:RDF xmlns:rdf="http://www.w3.org/1999/02/22-rdf-syntax-ns#">
      <rdf:Description rdf:about=""/>
   </rdf:RDF>
</x:xmpmeta>
                                                                                                    
                                                                                                    
                                                                                                    
                                                                                                    
                                                                                                    
                                                                                                    
                                                                                                    
                                                                                                    
                                                                                                    
                                                                                                    
                                                                                                    
                                                                                                    
                                                                                                    
                                                                                                    
                                                                                                    
                                                                                                    
                                                                                                    
                                                                                                    
                                                                                                    
                                                                                                    
                           
<?xpacket end="w"?></metadata>
<defs>
    <style>
      .cls-1 {
        fill: #d76732;
        fill-rule: evenodd;
      }
    </style>
  </defs>
  <path class="cls-1" d="M3329.5,1423a12.5,12.5,0,1,0,12.5,12.5A12.517,12.517,0,0,0,3329.5,1423Zm8.36,17.4a0.776,0.776,0,0,1,.02,1.1,0.757,0.757,0,0,1-.56.24,0.8,0.8,0,0,1-.54-0.21,8.382,8.382,0,0,1-2.56-5.25h-3.94v8.59a0.78,0.78,0,0,1-1.56,0v-8.59h-3.95a8.421,8.421,0,0,1-2.53,5.25,0.771,0.771,0,0,1-.55.22,0.779,0.779,0,0,1-.56-0.23,0.788,0.788,0,0,1,.02-1.11,6.737,6.737,0,0,0,2.04-4.13h-3.07a0.78,0.78,0,1,1,0-1.56h3.07a6.788,6.788,0,0,0-2.04-4.14,0.776,0.776,0,0,1-.02-1.1,0.788,0.788,0,0,1,1.11-.02,8.446,8.446,0,0,1,2.53,5.26h3.95v-8.6a0.78,0.78,0,0,1,1.56,0v8.6h3.94a8.333,8.333,0,0,1,2.56-5.25,0.776,0.776,0,0,1,1.1.02,0.788,0.788,0,0,1-.02,1.11,6.751,6.751,0,0,0-2.07,4.12h3.08a0.78,0.78,0,1,1,0,1.56h-3.08A6.8,6.8,0,0,0,3337.86,1440.4Z" transform="translate(-3317 -1423)"/>
</svg>
