<svg xmlns="http://www.w3.org/2000/svg" width="25" height="25" viewBox="0 0 25 25">
  <metadata><?xpacket begin="﻿" id="W5M0MpCehiHzreSzNTczkc9d"?>
<x:xmpmeta xmlns:x="adobe:ns:meta/" x:xmptk="Adobe XMP Core 5.6-c138 79.159824, 2016/09/14-01:09:01        ">
   <rdf:RDF xmlns:rdf="http://www.w3.org/1999/02/22-rdf-syntax-ns#">
      <rdf:Description rdf:about=""/>
   </rdf:RDF>
</x:xmpmeta>
                                                                                                    
                                                                                                    
                                                                                                    
                                                                                                    
                                                                                                    
                                                                                                    
                                                                                                    
                                                                                                    
                                                                                                    
                                                                                                    
                                                                                                    
                                                                                                    
                                                                                                    
                                                                                                    
                                                                                                    
                                                                                                    
                                                                                                    
                                                                                                    
                                                                                                    
                                                                                                    
                           
<?xpacket end="w"?></metadata>
<defs>
    <style>
      .cls-1 {
        fill: #fff;
        fill-rule: evenodd;
      }
    </style>
  </defs>
  <path class="cls-1" d="M3211.5,1423a12.463,12.463,0,0,0-8.9,3.72h0a0.038,0.038,0,0,1-.02.02q-0.39.4-.75,0.84a0.265,0.265,0,0,1-.05.06c-0.12.15-.23,0.29-0.34,0.44h0c-0.11.15-.21,0.3-0.32,0.45-0.02.03-.03,0.06-0.05,0.09-0.09.13-.18,0.26-0.26,0.4-0.01.02-.03,0.05-0.04,0.07-0.08.13-.16,0.27-0.24,0.41h0.01a12.39,12.39,0,0,0-1.54,6,12.524,12.524,0,0,0,.19,2.14h0v0.05c0.03,0.15.06,0.31,0.1,0.47,0.01,0.03.01,0.06,0.02,0.09,0.03,0.15.07,0.3,0.11,0.45,0.01,0.04.02,0.07,0.03,0.1,0.04,0.15.08,0.3,0.12,0.44a1.037,1.037,0,0,1,.04.1c0.04,0.14.09,0.29,0.14,0.44,0.01,0,.01.01,0.01,0.02,0.06,0.15.12,0.31,0.18,0.46h0A12.5,12.5,0,1,0,3211.5,1423Zm-10.8,13.57a8.8,8.8,0,0,0-1.12.71,11.557,11.557,0,0,1-.14-1.78,12.035,12.035,0,0,1,1.34-5.52,6.3,6.3,0,0,0,.83,1.06l0.04,0.04a11.364,11.364,0,0,0-.98,4.62Q3200.67,1436.12,3200.7,1436.57Zm10.25,8.99a8.638,8.638,0,0,1-5.22-.85,9.77,9.77,0,0,1-1.6-4.56,30.509,30.509,0,0,0,4.24-2.11,17.367,17.367,0,0,0,4.19,3.5C3211.58,1445.11,3210.95,1445.56,3210.95,1445.56Zm3.33-15.11a24.912,24.912,0,0,0-5.05,1.95s-1.89-1.8-3.34-3.46a9.309,9.309,0,0,1,2.79-3.99,9.942,9.942,0,0,1,5.28.91A17.7,17.7,0,0,1,3214.28,1430.45Zm6.62,11.01a18.486,18.486,0,0,1-3.15-1.94,13.155,13.155,0,0,0,.81-5.5c1.81-.49,3.58-1.15,3.58-1.15s1.14,1.27,1.45,4.63C3222.43,1440.58,3220.9,1441.46,3220.9,1441.46Z" transform="translate(-3199 -1423)"/>
</svg>
