<svg xmlns="http://www.w3.org/2000/svg" width="25" height="25" viewBox="0 0 25 25">
  <metadata><?xpacket begin="﻿" id="W5M0MpCehiHzreSzNTczkc9d"?>
<x:xmpmeta xmlns:x="adobe:ns:meta/" x:xmptk="Adobe XMP Core 5.6-c138 79.159824, 2016/09/14-01:09:01        ">
   <rdf:RDF xmlns:rdf="http://www.w3.org/1999/02/22-rdf-syntax-ns#">
      <rdf:Description rdf:about=""/>
   </rdf:RDF>
</x:xmpmeta>
                                                                                                    
                                                                                                    
                                                                                                    
                                                                                                    
                                                                                                    
                                                                                                    
                                                                                                    
                                                                                                    
                                                                                                    
                                                                                                    
                                                                                                    
                                                                                                    
                                                                                                    
                                                                                                    
                                                                                                    
                                                                                                    
                                                                                                    
                                                                                                    
                                                                                                    
                                                                                                    
                           
<?xpacket end="w"?></metadata>
<defs>
    <style>
      .cls-1 {
        fill: #8c893a;
        fill-rule: evenodd;
      }
    </style>
  </defs>
  <path class="cls-1" d="M3267.5,1423a12.5,12.5,0,1,0,12.5,12.5A12.517,12.517,0,0,0,3267.5,1423Zm7.58,17.4a0.782,0.782,0,0,1-1.08,1.13,8.292,8.292,0,0,1,0-12.06,0.776,0.776,0,0,1,1.1.02,0.788,0.788,0,0,1-.02,1.11A6.723,6.723,0,0,0,3275.08,1440.4Zm-14.06,1.13a0.764,0.764,0,0,1-.54.22,0.747,0.747,0,0,1-.56-0.23,0.779,0.779,0,0,1,.01-1.11,6.824,6.824,0,0,0,0-9.83,0.767,0.767,0,0,1-.01-1.1,0.776,0.776,0,0,1,1.1-.02A8.371,8.371,0,0,1,3261.02,1441.53Z" transform="translate(-3255 -1423)"/>
</svg>
