<svg xmlns="http://www.w3.org/2000/svg" width="27.94" height="28" viewBox="0 0 27.94 28">
  <metadata><?xpacket begin="﻿" id="W5M0MpCehiHzreSzNTczkc9d"?>
<x:xmpmeta xmlns:x="adobe:ns:meta/" x:xmptk="Adobe XMP Core 5.6-c138 79.159824, 2016/09/14-01:09:01        ">
   <rdf:RDF xmlns:rdf="http://www.w3.org/1999/02/22-rdf-syntax-ns#">
      <rdf:Description rdf:about=""/>
   </rdf:RDF>
</x:xmpmeta>
                                                                                                    
                                                                                                    
                                                                                                    
                                                                                                    
                                                                                                    
                                                                                                    
                                                                                                    
                                                                                                    
                                                                                                    
                                                                                                    
                                                                                                    
                                                                                                    
                                                                                                    
                                                                                                    
                                                                                                    
                                                                                                    
                                                                                                    
                                                                                                    
                                                                                                    
                                                                                                    
                           
<?xpacket end="w"?></metadata>
<defs>
    <style>
      .cls-1 {
        fill: #f8c464;
        fill-rule: evenodd;
      }
    </style>
  </defs>
  <path class="cls-1" d="M3157.79,1433.54h-0.51l-0.62,3.15h0.55a1.424,1.424,0,0,0,1.19-.54,2.586,2.586,0,0,0,.43-1.6,1.059,1.059,0,0,0-.25-0.75A1.018,1.018,0,0,0,3157.79,1433.54Zm-5.64-.04a0.815,0.815,0,0,0-.62.23,1.373,1.373,0,0,0-.31.64l-0.97,4.92a1.572,1.572,0,0,0-.04.23,1.848,1.848,0,0,0-.01.23,0.8,0.8,0,0,0,.18.54,0.72,0.72,0,0,0,.58.21,0.813,0.813,0,0,0,.62-0.24,1.281,1.281,0,0,0,.32-0.66l0.94-4.85a2.282,2.282,0,0,0,.04-0.45,0.844,0.844,0,0,0-.17-0.57A0.715,0.715,0,0,0,3152.15,1433.5Zm13.33,2.96a2.053,2.053,0,0,0,.49-1.68,1.993,1.993,0,0,0-.99-1.43l-2.46-1.43a0.467,0.467,0,0,1-.23-0.46l0.29-2.82a2.018,2.018,0,0,0-.58-1.65,2.042,2.042,0,0,0-1.64-.58l-2.83.3a0.475,0.475,0,0,1-.46-0.24l-1.42-2.46a2.021,2.021,0,0,0-3.11-.49l-2.11,1.9a0.5,0.5,0,0,1-.51.08l-2.6-1.16a2,2,0,0,0-1.74.05,2.045,2.045,0,0,0-1.07,1.38l-0.59,2.78a0.47,0.47,0,0,1-.37.37l-2.77.59a2.03,2.03,0,0,0-1.44,2.81l1.16,2.59a0.459,0.459,0,0,1-.08.51l-1.9,2.12a2.021,2.021,0,0,0,.49,3.11l2.46,1.42a0.475,0.475,0,0,1,.24.46l-0.3,2.83a2.042,2.042,0,0,0,.58,1.64,2.018,2.018,0,0,0,1.65.58l2.82-.29a0.467,0.467,0,0,1,.46.23l1.43,2.46a1.993,1.993,0,0,0,1.43.99,2.053,2.053,0,0,0,1.68-.49l2.11-1.91a0.5,0.5,0,0,1,.51-0.08l2.6,1.16a2,2,0,0,0,1.74-.05,2.024,2.024,0,0,0,1.07-1.38l0.58-2.78a0.5,0.5,0,0,1,.37-0.37l2.78-.59a2.013,2.013,0,0,0,1.43-2.8l-1.15-2.6a0.459,0.459,0,0,1,.08-0.51Zm-17.95-2.92-1.61,8.35h-1.51l1.62-8.35h-1.59l0.28-1.44h4.68l-0.28,1.44h-1.59Zm5.9,6.09a3.243,3.243,0,0,1-.79,1.72,2.22,2.22,0,0,1-1.71.63,2.258,2.258,0,0,1-1.7-.56,1.978,1.978,0,0,1-.54-1.44c0-.12.01-0.25,0.02-0.37s0.03-.26.05-0.39l0.94-4.88a3.23,3.23,0,0,1,.83-1.74,2.379,2.379,0,0,1,1.71-.58,2.234,2.234,0,0,1,1.63.55,2.022,2.022,0,0,1,.56,1.49,3.965,3.965,0,0,1-.08.73Zm6.71-3.85a3.5,3.5,0,0,1-.59,1.26,2.749,2.749,0,0,1-1.01.81,3.456,3.456,0,0,1-1.46.29h-0.7l-0.72,3.75h-1.52l1.9-9.79h2.1a2.457,2.457,0,0,1,1.63.48,2,2,0,0,1,.56,1.58A6.317,6.317,0,0,1,3160.14,1435.78Z" transform="translate(-3138.03 -1423)"/>
</svg>
