<svg xmlns="http://www.w3.org/2000/svg" width="13" height="13" viewBox="0 0 13 13">
  <metadata><?xpacket begin="﻿" id="W5M0MpCehiHzreSzNTczkc9d"?>
<x:xmpmeta xmlns:x="adobe:ns:meta/" x:xmptk="Adobe XMP Core 5.6-c138 79.159824, 2016/09/14-01:09:01        ">
   <rdf:RDF xmlns:rdf="http://www.w3.org/1999/02/22-rdf-syntax-ns#">
      <rdf:Description rdf:about=""/>
   </rdf:RDF>
</x:xmpmeta>
                                                                                                    
                                                                                                    
                                                                                                    
                                                                                                    
                                                                                                    
                                                                                                    
                                                                                                    
                                                                                                    
                                                                                                    
                                                                                                    
                                                                                                    
                                                                                                    
                                                                                                    
                                                                                                    
                                                                                                    
                                                                                                    
                                                                                                    
                                                                                                    
                                                                                                    
                                                                                                    
                           
<?xpacket end="w"?></metadata>
<defs>
    <style>
      .cls-1 {
        fill: #7b8191;
        fill-rule: evenodd;
      }
    </style>
  </defs>
  <path id="Shape_57_copy_6" data-name="Shape 57 copy 6" class="cls-1" d="M3076.55,1146.39a7.547,7.547,0,0,1,.14,1.96,10.467,10.467,0,0,0-2.16.83s-0.8-.77-1.42-1.48a3.915,3.915,0,0,1,1.19-1.69A4.254,4.254,0,0,1,3076.55,1146.39Zm-2.38,5.2a13.02,13.02,0,0,1-1.81.9,4.209,4.209,0,0,0,.68,1.94,3.632,3.632,0,0,0,2.23.36,3.789,3.789,0,0,0,.68-1.71A7.541,7.541,0,0,1,3074.17,1151.59Zm5.87-2.21s-0.75.28-1.52,0.49a5.662,5.662,0,0,1-.35,2.35,8.4,8.4,0,0,0,1.34.83,3.326,3.326,0,0,0,1.15-1.69A3.609,3.609,0,0,0,3080.04,1149.38Zm1.97,1.12a6.505,6.505,0,1,1-6.51-6.5A6.508,6.508,0,0,1,3082.01,1150.5Zm-1.16,0a5.346,5.346,0,0,0-10.03-2.57c0.03,0.07.06,0.13,0.09,0.19a2.99,2.99,0,0,0,.37.48l0.02,0.02a4.786,4.786,0,0,0-.42,1.97c0,0.12.01,0.24,0.01,0.37a2.666,2.666,0,0,0-.65.47A5.345,5.345,0,0,0,3080.85,1150.5Z" transform="translate(-3069 -1144)"/>
</svg>
