<svg xmlns="http://www.w3.org/2000/svg" width="27" height="27" viewBox="0 0 27 27">
  <metadata><?xpacket begin="﻿" id="W5M0MpCehiHzreSzNTczkc9d"?>
<x:xmpmeta xmlns:x="adobe:ns:meta/" x:xmptk="Adobe XMP Core 5.6-c142 79.160924, 2017/07/13-01:06:39        ">
   <rdf:RDF xmlns:rdf="http://www.w3.org/1999/02/22-rdf-syntax-ns#">
      <rdf:Description rdf:about=""/>
   </rdf:RDF>
</x:xmpmeta>
                                                                                                    
                                                                                                    
                                                                                                    
                                                                                                    
                                                                                                    
                                                                                                    
                                                                                                    
                                                                                                    
                                                                                                    
                                                                                                    
                                                                                                    
                                                                                                    
                                                                                                    
                                                                                                    
                                                                                                    
                                                                                                    
                                                                                                    
                                                                                                    
                                                                                                    
                                                                                                    
                           
<?xpacket end="w"?></metadata>
<defs>
    <style>
      .cls-1 {
        fill: #7b8191;
        fill-rule: evenodd;
      }
    </style>
  </defs>
  <path id="Account-off" class="cls-1" d="M373.51,7.013a13.494,13.494,0,0,1,9.834,22.737l0,0a13.5,13.5,0,0,1-19.674,0l0,0A13.5,13.5,0,0,1,373.51,7.013h0Zm-9.326,21.869a8.989,8.989,0,0,1,2.42-2.119,14.761,14.761,0,0,1,4.451-1.938,3.034,3.034,0,0,0,.076-0.852,6.241,6.241,0,0,1-1.629-3.2,1.352,1.352,0,0,1-.521-0.388,1.953,1.953,0,0,1-.345-0.624,2.238,2.238,0,0,1-.124-0.724,1.8,1.8,0,0,1,.4-1.166l0-.045a11.873,11.873,0,0,1-.082-1.277c0-1.922.617-4.724,4.685-4.724s4.686,2.8,4.686,4.724a11.873,11.873,0,0,1-.082,1.277l0,0.045a1.791,1.791,0,0,1,.4,1.166,2.292,2.292,0,0,1-.123.724,1.958,1.958,0,0,1-.346.623,1.359,1.359,0,0,1-.513.387,6.729,6.729,0,0,1-1.637,3.177,3.263,3.263,0,0,0,.076.879,14.761,14.761,0,0,1,4.451,1.938,8.958,8.958,0,0,1,2.42,2.119,12.532,12.532,0,1,0-18.653,0h0Zm17.969,0.7a7.639,7.639,0,0,0-2.253-2.009,13.706,13.706,0,0,0-4.084-1.8c-0.872-.14-0.894-2.006-0.894-2.012V23.525l0.195-.146a5.488,5.488,0,0,0,1.511-3.072l0.054-.42h0.423a0.305,0.305,0,0,0,.2-0.127,0.974,0.974,0,0,0,.169-0.313,1.3,1.3,0,0,0,.068-0.412,0.8,0.8,0,0,0-.245-0.619l-0.192-.163,0.051-.525a10.766,10.766,0,0,0,.073-1.18c0-1.529-.491-3.758-3.72-3.758s-3.72,2.229-3.72,3.758a10.505,10.505,0,0,0,.074,1.175l0.049,0.531-0.191.163a0.793,0.793,0,0,0-.244.619,1.274,1.274,0,0,0,.068.412,0.94,0.94,0,0,0,.171.314,0.293,0.293,0,0,0,.2.125h0.406l0.069,0.4a5.161,5.161,0,0,0,1.565,3.131l0.142,0.143v0.2c0,0.006-.021,1.872-0.893,2.012a13.685,13.685,0,0,0-4.084,1.8,7.643,7.643,0,0,0-2.254,2.009A12.536,12.536,0,0,0,382.153,29.586Z" transform="translate(-360 -7)"/>
</svg>
