<svg xmlns="http://www.w3.org/2000/svg" width="32" height="23" viewBox="0 0 32 23">
  <metadata><?xpacket begin="﻿" id="W5M0MpCehiHzreSzNTczkc9d"?>
<x:xmpmeta xmlns:x="adobe:ns:meta/" x:xmptk="Adobe XMP Core 5.6-c142 79.160924, 2017/07/13-01:06:39        ">
   <rdf:RDF xmlns:rdf="http://www.w3.org/1999/02/22-rdf-syntax-ns#">
      <rdf:Description rdf:about=""/>
   </rdf:RDF>
</x:xmpmeta>
                                                                                                    
                                                                                                    
                                                                                                    
                                                                                                    
                                                                                                    
                                                                                                    
                                                                                                    
                                                                                                    
                                                                                                    
                                                                                                    
                                                                                                    
                                                                                                    
                                                                                                    
                                                                                                    
                                                                                                    
                                                                                                    
                                                                                                    
                                                                                                    
                                                                                                    
                                                                                                    
                           
<?xpacket end="w"?></metadata>
<defs>
    <style>
      .cls-1 {
        fill: #7b8191;
        fill-rule: evenodd;
      }
    </style>
  </defs>
  <path class="cls-1" d="M194,9h26a3,3,0,0,1,3,3V29a3,3,0,0,1-3,3H194a3,3,0,0,1-3-3V12A3,3,0,0,1,194,9Zm2,9h22v1H196V18Zm0,4h22v1H196V22Zm0,4h22v1H196V26Zm-2-16h26a2,2,0,0,1,2,2V29a2,2,0,0,1-2,2H194a2,2,0,0,1-2-2V12A2,2,0,0,1,194,10Z" transform="translate(-191 -9)"/>
</svg>
