<svg xmlns="http://www.w3.org/2000/svg" width="29.719" height="28.5" viewBox="0 0 29.719 28.5">
  <metadata><?xpacket begin="﻿" id="W5M0MpCehiHzreSzNTczkc9d"?>
<x:xmpmeta xmlns:x="adobe:ns:meta/" x:xmptk="Adobe XMP Core 5.6-c142 79.160924, 2017/07/13-01:06:39        ">
   <rdf:RDF xmlns:rdf="http://www.w3.org/1999/02/22-rdf-syntax-ns#">
      <rdf:Description rdf:about=""/>
   </rdf:RDF>
</x:xmpmeta>
                                                                                                    
                                                                                                    
                                                                                                    
                                                                                                    
                                                                                                    
                                                                                                    
                                                                                                    
                                                                                                    
                                                                                                    
                                                                                                    
                                                                                                    
                                                                                                    
                                                                                                    
                                                                                                    
                                                                                                    
                                                                                                    
                                                                                                    
                                                                                                    
                                                                                                    
                                                                                                    
                           
<?xpacket end="w"?></metadata>
<defs>
    <style>
      .cls-1 {
        fill: #7b8191;
        fill-opacity: 0;
        stroke: #7b8191;
        stroke-width: 1px;
        fill-rule: evenodd;
      }
    </style>
  </defs>
  <path id="Featured" class="cls-1" d="M125.3,6.606c0.414,1.276.8,2.461,1.184,3.648,0.712,2.2,1.427,4.4,2.128,6.6a0.32,0.32,0,0,0,.4.224q5.113,0,10.227,0h0.449c-0.153.126-.23,0.2-0.312,0.255q-4.146,3.023-8.3,6.037a0.412,0.412,0,0,0-.173.561q1.6,4.9,3.185,9.816c0.026,0.083.047,0.167,0.095,0.339l-8.9-6.484-8.912,6.493c0.265-.827.506-1.583,0.751-2.337,0.857-2.641,1.711-5.283,2.58-7.919a0.339,0.339,0,0,0-.186-0.444q-4.163-3.028-8.32-6.061a0.694,0.694,0,0,1-.227-0.255H111.3c3.4,0,6.8,0,10.193.006A0.43,0.43,0,0,0,122,16.726q1.569-4.915,3.169-9.82C125.2,6.835,125.229,6.767,125.3,6.606Z" transform="translate(-110.469 -6.094)"/>
</svg>
