<svg xmlns="http://www.w3.org/2000/svg" width="32" height="24" viewBox="0 0 32 24">
  <metadata><?xpacket begin="﻿" id="W5M0MpCehiHzreSzNTczkc9d"?>
<x:xmpmeta xmlns:x="adobe:ns:meta/" x:xmptk="Adobe XMP Core 5.6-c142 79.160924, 2017/07/13-01:06:39        ">
   <rdf:RDF xmlns:rdf="http://www.w3.org/1999/02/22-rdf-syntax-ns#">
      <rdf:Description rdf:about=""/>
   </rdf:RDF>
</x:xmpmeta>
                                                                                                    
                                                                                                    
                                                                                                    
                                                                                                    
                                                                                                    
                                                                                                    
                                                                                                    
                                                                                                    
                                                                                                    
                                                                                                    
                                                                                                    
                                                                                                    
                                                                                                    
                                                                                                    
                                                                                                    
                                                                                                    
                                                                                                    
                                                                                                    
                                                                                                    
                                                                                                    
                           
<?xpacket end="w"?></metadata>
<defs>
    <style>
      .cls-1 {
        fill: #7b8191;
        fill-rule: evenodd;
      }
    </style>
  </defs>
  <path id="Rectangle_18_copy_6" data-name="Rectangle 18 copy 6" class="cls-1" d="M56,31H25V9h9v3H48V9h9V31H56Zm0-21H49v3H33V10H26V30H56V10ZM38,18H30V17h8v1Zm0,4H30V21h8v1Zm0,4H30V25h8v1Zm4-8H40V17h2v1Zm0,4H40V21h2v1Zm0,4H40V25h2v1Zm10-8H44V17h8v1Zm0,4H44V21h8v1Zm0,4H44V25h8v1ZM36,7H46v3H36V7Z" transform="translate(-25 -7)"/>
</svg>
