<svg xmlns="http://www.w3.org/2000/svg" width="32" height="23" viewBox="0 0 32 23">
  <metadata><?xpacket begin="﻿" id="W5M0MpCehiHzreSzNTczkc9d"?>
<x:xmpmeta xmlns:x="adobe:ns:meta/" x:xmptk="Adobe XMP Core 5.6-c142 79.160924, 2017/07/13-01:06:39        ">
   <rdf:RDF xmlns:rdf="http://www.w3.org/1999/02/22-rdf-syntax-ns#">
      <rdf:Description rdf:about=""/>
   </rdf:RDF>
</x:xmpmeta>
                                                                                                    
                                                                                                    
                                                                                                    
                                                                                                    
                                                                                                    
                                                                                                    
                                                                                                    
                                                                                                    
                                                                                                    
                                                                                                    
                                                                                                    
                                                                                                    
                                                                                                    
                                                                                                    
                                                                                                    
                                                                                                    
                                                                                                    
                                                                                                    
                                                                                                    
                                                                                                    
                           
<?xpacket end="w"?></metadata>
<defs>
    <style>
      .cls-1 {
        fill: #7b8191;
        fill-rule: evenodd;
      }
    </style>
  </defs>
  <path class="cls-1" d="M307,15V25a3,3,0,0,1-3,3h-1v1a3,3,0,0,1-3,3H278a3,3,0,0,1-3-3V16a3,3,0,0,1,3-3h1V12a3,3,0,0,1,3-3h25v6h0ZM286,27h12V26H286v1Zm0-4h12V22H286v1Zm0-4h12V18H286v1Zm-6,8h1v1h1V27h1V26h1V25h-1v1h-1v1h-1V26h-1v1Zm0-4h1v1h1V23h1V22h1V21h-1v1h-1v1h-1V22h-1v1Zm0-4h1v1h1V19h1V18h1V17h-1v1h-1v1h-1V18h-1v1Zm26-9H282a2,2,0,0,0-2,2v1h23V27h1a2,2,0,0,0,2-2V10Zm-28,4h24V29a2,2,0,0,1-2,2H278a2,2,0,0,1-2-2V16A2,2,0,0,1,278,14Z" transform="translate(-275 -9)"/>
</svg>
